<svg width="54" height="52" viewBox="0 0 54 52" fill="none" xmlns="http://www.w3.org/2000/svg">
<path d="M10.8235 13.293H7.88236C6.32226 13.293 4.82606 13.8879 3.7229 14.947C2.61975 16.006 2 17.4424 2 18.9401V44.3524C2 45.8501 2.61975 47.2865 3.7229 48.3456C4.82606 49.4046 6.32226 49.9996 7.88236 49.9996H34.353C35.9131 49.9996 37.4093 49.4046 38.5124 48.3456C39.6156 47.2865 40.2353 45.8501 40.2353 44.3524V41.5288" stroke="#FE7991" stroke-width="3" stroke-linecap="round" stroke-linejoin="round"/>
<path d="M37.2938 7.64747L46.1174 16.1182M50.1909 12.1229C51.3493 11.0108 52 9.50252 52 7.92983C52 6.35714 51.3493 4.84887 50.1909 3.73681C49.0325 2.62475 47.4614 2 45.8233 2C44.1851 2 42.614 2.62475 41.4556 3.73681L16.7056 27.4126V35.8833H25.5291L50.1909 12.1229Z" stroke="#FE7991" stroke-width="3" stroke-linecap="round" stroke-linejoin="round"/>
</svg>
