<svg width="60" height="29" viewBox="0 0 60 29" fill="none" xmlns="http://www.w3.org/2000/svg">
<path d="M21.2992 6.92907L27.5435 14.5L21.303 22.0709C19.855 23.5433 18.0171 24.5413 16.0205 24.9397C14.0238 25.338 11.9575 25.1189 10.0813 24.3097C8.20512 23.5006 6.60284 22.1376 5.47592 20.3922C4.34899 18.6468 3.74773 16.5968 3.74773 14.5C3.74773 12.4032 4.34899 10.3532 5.47592 8.6078C6.60284 6.86236 8.20512 5.4994 10.0813 4.69027C11.9575 3.88115 14.0238 3.66198 16.0205 4.06032C18.0171 4.45867 19.855 5.45675 21.303 6.92907H21.2992ZM30 11.5149L24.0595 4.3036L24.007 4.2456C22.04 2.21813 19.5341 0.837516 16.8061 0.27834C14.0781 -0.280835 11.2505 0.00653605 8.68092 1.10412C6.11132 2.2017 3.91509 4.0602 2.36991 6.44463C0.82473 8.82906 0 11.6323 0 14.5C0 17.3677 0.82473 20.1709 2.36991 22.5554C3.91509 24.9398 6.11132 26.7983 8.68092 27.8959C11.2505 28.9935 14.0781 29.2808 16.8061 28.7217C19.5341 28.1625 22.04 26.7819 24.007 24.7544L24.0595 24.6964L30 17.4851L35.9405 24.6964L35.993 24.7544C37.96 26.7819 40.4659 28.1625 43.1939 28.7217C45.9219 29.2808 48.7495 28.9935 51.3191 27.8959C53.8887 26.7983 56.0849 24.9398 57.6301 22.5554C59.1753 20.1709 60 17.3677 60 14.5C60 11.6323 59.1753 8.82906 57.6301 6.44463C56.0849 4.0602 53.8887 2.2017 51.3191 1.10412C48.7495 0.00653605 45.9219 -0.280835 43.1939 0.27834C40.4659 0.837516 37.96 2.21813 35.993 4.2456L35.9405 4.3036L30 11.5149ZM32.4602 14.5L38.697 6.92907C40.145 5.45675 41.9829 4.45867 43.9795 4.06032C45.9762 3.66198 48.0425 3.88115 49.9187 4.69027C51.7949 5.4994 53.3972 6.86236 54.5241 8.6078C55.651 10.3532 56.2523 12.4032 56.2523 14.5C56.2523 16.5968 55.651 18.6468 54.5241 20.3922C53.3972 22.1376 51.7949 23.5006 49.9187 24.3097C48.0425 25.1189 45.9762 25.338 43.9795 24.9397C41.9829 24.5413 40.145 23.5433 38.697 22.0709L32.4602 14.5Z" fill="#FE7991"/>
</svg>
