<svg width="42" height="50" viewBox="0 0 42 50" fill="none" xmlns="http://www.w3.org/2000/svg">
<path d="M10.5 30.5551C10.1022 30.5551 9.72064 30.4088 9.43934 30.1483C9.15804 29.8879 9 29.5346 9 29.1662C9 28.7979 9.15804 28.4446 9.43934 28.1841C9.72064 27.9237 10.1022 27.7773 10.5 27.7773H31.5C31.8978 27.7773 32.2794 27.9237 32.5607 28.1841C32.842 28.4446 33 28.7979 33 29.1662C33 29.5346 32.842 29.8879 32.5607 30.1483C32.2794 30.4088 31.8978 30.5551 31.5 30.5551H10.5ZM10.5 38.8885C10.1022 38.8885 9.72064 38.7421 9.43934 38.4817C9.15804 38.2212 9 37.8679 9 37.4996C9 37.1312 9.15804 36.7779 9.43934 36.5175C9.72064 36.257 10.1022 36.1107 10.5 36.1107H31.5C31.8978 36.1107 32.2794 36.257 32.5607 36.5175C32.842 36.7779 33 37.1312 33 37.4996C33 37.8679 32.842 38.2212 32.5607 38.4817C32.2794 38.7421 31.8978 38.8885 31.5 38.8885H10.5Z" fill="#FE7991"/>
<path fill-rule="evenodd" clip-rule="evenodd" d="M24.555 3.88172e-07H4.5C3.30653 3.88172e-07 2.16193 0.438987 1.31802 1.22039C0.474106 2.00179 0 3.0616 0 4.16667V45.8333C0 46.9384 0.474106 47.9982 1.31802 48.7796C2.16193 49.561 3.30653 50 4.5 50H37.5C38.6935 50 39.8381 49.561 40.682 48.7796C41.5259 47.9982 42 46.9384 42 45.8333V17.2278C41.9997 16.1846 41.5769 15.1796 40.815 14.4111L27.873 1.35C27.4512 0.924293 26.9385 0.584446 26.3673 0.352041C25.7961 0.119635 25.1789 -0.000248962 24.555 3.88172e-07ZM3 4.16667C3 3.79831 3.15804 3.44504 3.43934 3.18457C3.72064 2.92411 4.10218 2.77778 4.5 2.77778H24.555C24.7631 2.77757 24.9691 2.81747 25.1596 2.89494C25.3502 2.97241 25.5213 3.08576 25.662 3.22778L38.604 16.2889C38.8583 16.5449 38.9996 16.8799 39 17.2278V45.8333C39 46.2017 38.842 46.555 38.5607 46.8154C38.2794 47.0759 37.8978 47.2222 37.5 47.2222H4.5C4.10218 47.2222 3.72064 47.0759 3.43934 46.8154C3.15804 46.555 3 46.2017 3 45.8333V4.16667Z" fill="#FE7991"/>
<path d="M24 16.6667H40.5C40.8978 16.6667 41.2794 16.813 41.5607 17.0735C41.842 17.3339 42 17.6872 42 18.0556C42 18.4239 41.842 18.7772 41.5607 19.0376C41.2794 19.2981 40.8978 19.4444 40.5 19.4444H22.5C22.1022 19.4444 21.7206 19.2981 21.4393 19.0376C21.158 18.7772 21 18.4239 21 18.0556V1.38889C21 1.02053 21.158 0.667263 21.4393 0.406796C21.7206 0.146329 22.1022 0 22.5 0C22.8978 0 23.2794 0.146329 23.5607 0.406796C23.842 0.667263 24 1.02053 24 1.38889V16.6667Z" fill="#FE7991"/>
</svg>
