<svg width="65" height="54" viewBox="0 0 65 54" fill="none" xmlns="http://www.w3.org/2000/svg">
<path d="M38.3356 16.875H52.4592V20.25H38.3356V16.875ZM38.3356 25.3125H52.4592V28.6875H38.3356V25.3125ZM38.3356 33.75H52.4592V37.125H38.3356V33.75ZM12.106 16.875H26.2296V20.25H12.106V16.875ZM12.106 25.3125H26.2296V28.6875H12.106V25.3125ZM12.106 33.75H26.2296V37.125H12.106V33.75Z" fill="#FE7991"/>
<path d="M56.4944 8.4375H8.07048C7.00058 8.43839 5.97479 8.79426 5.21826 9.427C4.46172 10.0597 4.03622 10.9177 4.03516 11.8125V42.1875C4.03622 43.0823 4.46172 43.9403 5.21826 44.573C5.97479 45.2057 7.00058 45.5616 8.07048 45.5625H56.4944C57.5643 45.5616 58.5901 45.2057 59.3466 44.573C60.1032 43.9403 60.5287 43.0823 60.5297 42.1875V11.8125C60.5287 10.9177 60.1032 10.0597 59.3466 9.427C58.5901 8.79426 57.5643 8.43839 56.4944 8.4375ZM8.07048 11.8125H30.2648V42.1875H8.07048V11.8125ZM34.3001 42.1875V11.8125H56.4944V42.1875H34.3001Z" fill="#FE7991"/>
</svg>
