<svg width="60" height="36" viewBox="0 0 60 36" fill="none" xmlns="http://www.w3.org/2000/svg">
<path d="M10.7142 0.25H36.4282C39.2162 0.25 41.8831 1.18071 43.8435 2.82746C45.8026 4.47313 46.8924 6.69482 46.8924 9V27C46.8924 29.3052 45.8026 31.5269 43.8435 33.1725C41.8831 34.8193 39.2162 35.75 36.4282 35.75H10.7142C7.92618 35.75 5.25931 34.8193 3.29891 33.1725C1.3398 31.5269 0.25 29.3052 0.25 27V9C0.25 6.69482 1.3398 4.47313 3.29891 2.82746C5.25931 1.18071 7.92618 0.25 10.7142 0.25ZM6.00774 4.9902C4.75197 6.04506 4.03567 7.48606 4.03567 9V27C4.03567 28.5139 4.75197 29.9549 6.00774 31.0098C7.26221 32.0636 8.95565 32.65 10.7142 32.65H36.4282C38.1867 32.65 39.8802 32.0636 41.1346 31.0098C42.3904 29.9549 43.1067 28.5139 43.1067 27V9C43.1067 7.48606 42.3904 6.04506 41.1346 4.9902C39.8802 3.93643 38.1867 3.35 36.4282 3.35H10.7142C8.95565 3.35 7.26221 3.93643 6.00774 4.9902Z" fill="#FE7991" stroke="#FE7991" stroke-width="0.5"/>
<path d="M59.9998 28.7997V5.39969V28.7997ZM59.9998 28.7997C59.9999 29.1239 59.8957 29.4422 59.6983 29.7208M59.9998 28.7997L59.6983 29.7208M57.7704 30.5986C57.3847 30.5855 57.0104 30.4851 56.687 30.3081L57.7704 30.5986ZM57.7704 30.5986C58.1561 30.6117 58.5388 30.5371 58.8781 30.3826M57.7704 30.5986L58.8781 30.3826M58.8781 30.3826C59.2175 30.228 59.5008 29.9994 59.6983 29.7208M58.8781 30.3826L59.6983 29.7208M56.8069 4.10707L56.8071 4.10698C57.0948 3.94945 57.431 3.85871 57.7798 3.847C58.1287 3.83529 58.4731 3.90319 58.7762 4.04152C59.0793 4.17984 59.3264 4.38182 59.4957 4.62154C59.6646 4.86067 59.7505 5.1292 59.7498 5.39903V5.39969V28.7997V28.7998C59.7499 29.0693 59.6635 29.3375 59.4943 29.5762C59.3247 29.8155 59.0775 30.0171 58.7745 30.155C58.4716 30.293 58.1273 30.3606 57.7789 30.3488C57.4304 30.3369 57.0945 30.2462 56.8071 30.0888L56.8068 30.0887L43.9329 23.0616C43.9328 23.0615 43.9327 23.0615 43.9326 23.0615C43.664 22.9144 43.449 22.7154 43.3035 22.4867C43.1584 22.2584 43.0863 22.0067 43.09 21.7545L43.09 21.754L43.2057 12.351C43.2057 12.351 43.2057 12.3509 43.2057 12.3509C43.209 12.104 43.2848 11.8587 43.4305 11.6365C43.5765 11.4138 43.7888 11.2204 44.0524 11.0769L44.0527 11.0767L56.8069 4.10707ZM55.5943 25.7071L55.9642 25.9091V25.4877V8.71889V8.29755L55.5943 8.49947L47.1087 13.1327L46.9803 13.2028L46.9785 13.3491L46.8885 20.8011L46.8867 20.9514L47.0187 21.0235L55.5943 25.7071Z" fill="#FE7991" stroke="#FE7991" stroke-width="0.5"/>
</svg>
