<svg width="42" height="59" viewBox="0 0 42 59" fill="none" xmlns="http://www.w3.org/2000/svg">
<path d="M2 21.1304V18.7391C2 14.2996 4.00178 10.042 7.56497 6.90278C11.1282 3.76358 15.9609 2 21 2C26.0391 2 30.8718 3.76358 34.435 6.90278C37.9982 10.042 40 14.2996 40 18.7391C39.9995 21.8011 38.6191 24.7375 36.162 26.903L29.6097 32.6757C28.6011 33.5639 27.8011 34.6186 27.2553 35.7793C26.7094 36.9401 26.4285 38.1842 26.4286 39.4407V40.2609H15.5714V37.4583C15.5714 33.13 17.5257 28.9763 21 25.913L24.5096 22.8211C25.118 22.285 25.6006 21.6486 25.9299 20.9483C26.2591 20.2479 26.4286 19.4972 26.4286 18.7391C26.4286 17.4707 25.8566 16.2542 24.8386 15.3573C23.8205 14.4604 22.4397 13.9565 21 13.9565C19.5603 13.9565 18.1795 14.4604 17.1614 15.3573C16.1434 16.2542 15.5714 17.4707 15.5714 18.7391V21.1304H2ZM21 47.4348C22.4397 47.4348 23.8205 47.9387 24.8386 48.8356C25.8566 49.7325 26.4286 50.949 26.4286 52.2174C26.4286 53.4858 25.8566 54.7023 24.8386 55.5992C23.8205 56.4961 22.4397 57 21 57C19.5603 57 18.1795 56.4961 17.1614 55.5992C16.1434 54.7023 15.5714 53.4858 15.5714 52.2174C15.5714 50.949 16.1434 49.7325 17.1614 48.8356C18.1795 47.9387 19.5603 47.4348 21 47.4348Z" stroke="#FE7991" stroke-width="3"/>
</svg>
