<svg width="35" height="35" viewBox="0 0 35 35" fill="none" xmlns="http://www.w3.org/2000/svg">
<path fill-rule="evenodd" clip-rule="evenodd" d="M16.8951 3.3581e-07H18.1049C21.2631 -1.79155e-05 23.753 -3.22276e-05 25.7315 0.214328C27.7558 0.433638 29.4178 0.891333 30.8423 1.92629C31.6986 2.54841 32.4516 3.30142 33.0737 4.15768C34.1087 5.58219 34.5664 7.24424 34.7857 9.26846C35 11.247 35 13.7368 35 16.8951V18.1049C35 21.2632 35 23.753 34.7857 25.7315C34.5664 27.7558 34.1087 29.4178 33.0737 30.8423C32.4516 31.6986 31.6986 32.4516 30.8423 33.0737C29.4178 34.1087 27.7558 34.5664 25.7315 34.7857C23.753 35 21.2632 35 18.1049 35H16.8951C13.7368 35 11.247 35 9.26846 34.7857C7.24424 34.5664 5.58219 34.1087 4.15768 33.0737C3.30142 32.4516 2.54841 31.6986 1.92629 30.8423C0.891333 29.4178 0.433638 27.7558 0.214328 25.7315C-3.22276e-05 23.753 -1.79155e-05 21.2631 3.3581e-07 18.1049V16.8951C-1.79155e-05 13.7369 -3.22276e-05 11.247 0.214328 9.26846C0.433638 7.24424 0.891333 5.58219 1.92629 4.15768C2.54841 3.30142 3.30142 2.54841 4.15768 1.92629C5.58219 0.891333 7.24424 0.433638 9.26846 0.214328C11.247 -3.22276e-05 13.7369 -1.79155e-05 16.8951 3.3581e-07ZM9.58417 3.12831C7.80933 3.3206 6.72208 3.68611 5.8805 4.29755C5.27307 4.73888 4.73888 5.27307 4.29755 5.8805C3.68611 6.72208 3.3206 7.80933 3.12831 9.58417C2.93305 11.3864 2.93104 13.7176 2.93104 16.9828V18.0172C2.93104 21.2824 2.93305 23.6136 3.12831 25.4158C3.3206 27.1907 3.68611 28.2779 4.29755 29.1195C4.73888 29.7269 5.27307 30.2611 5.8805 30.7024C6.72208 31.3139 7.80933 31.6794 9.58417 31.8717C11.3864 32.067 13.7176 32.069 16.9828 32.069H18.0172C21.2824 32.069 23.6136 32.067 25.4158 31.8717C27.1907 31.6794 28.2779 31.3139 29.1195 30.7024C29.7269 30.2611 30.2611 29.7269 30.7024 29.1195C31.3139 28.2779 31.6794 27.1907 31.8717 25.4158C32.067 23.6136 32.069 21.2824 32.069 18.0172V16.9828C32.069 13.7176 32.067 11.3864 31.8717 9.58417C31.6794 7.80933 31.3139 6.72208 30.7024 5.8805C30.2611 5.27307 29.7269 4.73888 29.1195 4.29755C28.2779 3.68611 27.1907 3.3206 25.4158 3.12831C23.6136 2.93305 21.2824 2.93104 18.0172 2.93104H16.9828C13.7176 2.93104 11.3864 2.93305 9.58417 3.12831Z" fill="#151515"/>
<path fill-rule="evenodd" clip-rule="evenodd" d="M17.5 11.5517C14.2149 11.5517 11.5517 14.2149 11.5517 17.5C11.5517 20.7851 14.2149 23.4483 17.5 23.4483C20.7851 23.4483 23.4483 20.7851 23.4483 17.5C23.4483 14.2149 20.7851 11.5517 17.5 11.5517ZM8.62069 17.5C8.62069 12.5961 12.5961 8.62069 17.5 8.62069C22.4039 8.62069 26.3793 12.5961 26.3793 17.5C26.3793 22.4039 22.4039 26.3793 17.5 26.3793C12.5961 26.3793 8.62069 22.4039 8.62069 17.5Z" fill="#151515"/>
<path d="M24.9138 8.125C24.9138 7.01805 25.8112 6.12069 26.9181 6.12069C28.0251 6.12069 28.9224 7.01805 28.9224 8.125C28.9224 9.23195 28.0251 10.1293 26.9181 10.1293C25.8112 10.1293 24.9138 9.23195 24.9138 8.125Z" fill="#151515"/>
</svg>
