<svg width="35" height="35" viewBox="0 0 35 35" fill="none" xmlns="http://www.w3.org/2000/svg">
<path d="M12.4735 15.4742C10.9167 16.0718 9.31704 16.6859 7.85433 17.3942C7.09048 17.8859 8.1059 18.2338 9.0583 18.56C9.2096 18.6119 9.35931 18.6631 9.50005 18.7144C9.61723 18.746 9.73641 18.7794 9.85717 18.8132C10.9163 19.1099 12.0974 19.4408 13.1257 18.9431C14.8149 18.09 16.409 17.1037 18.0019 16.1181C18.5237 15.7952 19.0455 15.4724 19.5704 15.1543C19.595 15.1405 19.6227 15.1247 19.6531 15.1074C20.1003 14.8525 21.1059 14.2794 20.7339 15.0691C19.8542 15.9149 18.912 16.6637 17.9647 17.4164C17.3262 17.9238 16.6854 18.433 16.0599 18.975C15.5151 19.3642 14.9493 20.1468 15.5594 20.6918C16.9645 21.5567 18.3916 22.4005 19.8178 23.2439C20.282 23.5184 20.746 23.7928 21.2092 24.0678C21.9941 24.6188 23.2209 24.1731 23.3935 23.3121C23.4702 22.9161 23.5473 22.52 23.6243 22.124C24.0501 19.9351 24.4761 17.7454 24.8524 15.5493C24.9036 15.2049 24.9615 14.8604 25.0195 14.5158C25.1601 13.6805 25.3009 12.8442 25.3448 12.0045C25.2315 11.1665 24.0758 11.3507 23.4326 11.5391C20.1267 12.6451 16.8539 13.8331 13.594 15.042C13.2247 15.1858 12.8503 15.3295 12.4735 15.4742Z" fill="#151515"/>
<path fill-rule="evenodd" clip-rule="evenodd" d="M16.8951 3.35808e-07C13.7369 -1.79155e-05 11.247 -3.22276e-05 9.26846 0.214328C7.24424 0.433638 5.58219 0.891333 4.15768 1.92629C3.30142 2.54841 2.54841 3.30142 1.9263 4.15768C0.891333 5.58219 0.433638 7.24424 0.214328 9.26846C-3.20632e-05 11.247 -1.77556e-05 13.7369 3.31317e-07 16.8951V18.1049C-1.77556e-05 21.2631 -3.20632e-05 23.753 0.214328 25.7315C0.433638 27.7558 0.891333 29.4178 1.9263 30.8423C2.54841 31.6986 3.30142 32.4516 4.15768 33.0737C5.58219 34.1087 7.24424 34.5664 9.26846 34.7857C11.247 35 13.7368 35 16.895 35H18.1049C21.2631 35 23.753 35 25.7315 34.7857C27.7558 34.5664 29.4178 34.1087 30.8423 33.0737C31.6986 32.4516 32.4516 31.6986 33.0737 30.8423C34.1087 29.4178 34.5664 27.7558 34.7857 25.7315C35 23.753 35 21.2632 35 18.105V16.8951C35 13.7369 35 11.247 34.7857 9.26846C34.5664 7.24424 34.1087 5.58219 33.0737 4.15768C32.4516 3.30142 31.6986 2.54841 30.8423 1.92629C29.4178 0.891333 27.7558 0.433638 25.7315 0.214328C23.753 -3.22276e-05 21.2631 -1.79155e-05 18.1049 3.35808e-07H16.8951ZM5.8805 4.29755C6.72208 3.68611 7.80933 3.3206 9.58417 3.12831C11.3864 2.93305 13.7176 2.93104 16.9828 2.93104H18.0172C21.2824 2.93104 23.6136 2.93305 25.4158 3.12831C27.1907 3.3206 28.2779 3.68611 29.1195 4.29755C29.7269 4.73888 30.2611 5.27307 30.7024 5.8805C31.3139 6.72208 31.6794 7.80933 31.8717 9.58417C32.067 11.3864 32.069 13.7176 32.069 16.9828V18.0172C32.069 21.2824 32.067 23.6136 31.8717 25.4158C31.6794 27.1907 31.3139 28.2779 30.7024 29.1195C30.2611 29.7269 29.7269 30.2611 29.1195 30.7024C28.2779 31.3139 27.1907 31.6794 25.4158 31.8717C23.6136 32.067 21.2824 32.069 18.0172 32.069H16.9828C13.7176 32.069 11.3864 32.067 9.58417 31.8717C7.80933 31.6794 6.72208 31.3139 5.8805 30.7024C5.27307 30.2611 4.73888 29.7269 4.29755 29.1195C3.68611 28.2779 3.3206 27.1907 3.12831 25.4158C2.93305 23.6136 2.93104 21.2824 2.93104 18.0172V16.9828C2.93104 13.7176 2.93305 11.3864 3.12831 9.58417C3.3206 7.80933 3.68611 6.72208 4.29755 5.8805C4.73888 5.27307 5.27307 4.73888 5.8805 4.29755Z" fill="#151515"/>
</svg>
